Coordinates
version=1
nRows=24
nColumns=24
inDegrees=yes

Units are S.I. units (second, meters, Newtons, ...)
Angles are in degrees.

endheader
time	pelvis_tilt	pelvis_list	pelvis_rotation	pelvis_tx	pelvis_ty	pelvis_tz	hip_flexion_r	hip_adduction_r	hip_rotation_r	knee_angle_r	ankle_angle_r	subtalar_angle_r	mtp_angle_r	hip_flexion_l	hip_adduction_l	hip_rotation_l	knee_angle_l	ankle_angle_l	subtalar_angle_l	mtp_angle_l	lumbar_extension	lumbar_bending	lumbar_rotation
      4.60500000	    -15.27555444	      4.80534764	     -2.18985252	     -0.97172913	     -0.01376010	     -0.39258837	     35.19665010	     -6.71512210	     -4.56851504	    -62.55986658	     -4.07746198	    -11.36777653	     23.37105161	     21.64102963	      6.99270970	     -8.33986170	    -19.92423782	      6.98295350	     -1.49375495	      6.58555743	     20.40862645	     -5.75544278	     -9.37464821
      4.61000000	    -15.26879647	      4.47218488	     -1.94833274	     -0.96569233	     -0.01296028	     -0.39296952	     35.72094083	     -6.47191120	     -5.12100106	    -61.70328563	     -3.54365578	    -11.44114012	     23.10141768	     20.87995969	      6.82310473	     -7.96774708	    -19.37595984	      7.08099400	     -1.39498794	      6.37405299	     20.36630277	     -5.55486057	     -9.83481047
      4.61500000	    -15.27296787	      4.14984232	     -1.70632304	     -0.95968144	     -0.01224407	     -0.39332295	     36.23823669	     -6.24939835	     -5.68552756	    -60.78140220	     -3.05940253	    -11.52640239	     22.77432537	     20.13784907	      6.65123688	     -7.60940027	    -18.83164501	      7.17725106	     -1.28134681	      6.17081848	     20.33543346	     -5.36893401	    -10.29062999
      4.62000000	    -15.26829222	      3.84702337	     -1.45658504	     -0.95368515	     -0.01159133	     -0.39365647	     36.72532596	     -6.05890111	     -6.26001600	    -59.79879020	     -2.61773356	    -11.62235017	     22.34868178	     19.39011184	      6.49132041	     -7.26140939	    -18.28703608	      7.26746898	     -1.15557877	      5.94897056	     20.29480750	     -5.20473347	    -10.75286036
      4.62500000	    -15.29439121	      3.54720989	     -1.23656063	     -0.94770309	     -0.01103811	     -0.39391990	     37.22824368	     -5.85765559	     -6.81351195	    -58.74743501	     -2.21374808	    -11.67360395	     21.93867786	     18.68421933	      6.30942560	     -6.96255553	    -17.75005573	      7.36140966	     -1.03202555	      5.76434259	     20.29420495	     -5.04108301	    -11.16871617
      4.63000000	    -15.27867403	      3.28316981	     -0.98707186	     -0.94175036	     -0.01052720	     -0.39418396	     37.66661303	     -5.71565103	     -7.38199502	    -57.65102827	     -1.84487968	    -11.73825733	     21.36849726	     17.93079852	      6.16705538	     -6.62406928	    -17.20161329	      7.46279469	     -0.86348995	      5.54691163	     20.24091917	     -4.92552597	    -11.61257783
      4.63500000	    -15.29906966	      3.01183444	     -0.77161177	     -0.93580433	     -0.01011408	     -0.39441422	     38.12079558	     -5.55306526	     -7.93298401	    -56.48321696	     -1.49395399	    -11.72253705	     20.81324861	     17.22902870	      5.99468025	     -6.36313462	    -16.66900052	      7.55904323	     -0.70398310	      5.36004090	     20.23136856	     -4.78288976	    -12.00419677
      4.64000000	    -15.32572377	      2.75414443	     -0.56829038	     -0.92985093	     -0.00977232	     -0.39461252	     38.55653405	     -5.39798803	     -8.46230472	    -55.24858639	     -1.16954007	    -11.66703814	     20.30707120	     16.54106655	      5.82300794	     -6.14886905	    -16.14346468	      7.64840995	     -0.54629067	      5.20675154	     20.23388753	     -4.65066594	    -12.37876629
      4.64500000	    -15.38431127	      2.50194046	     -0.37666092	     -0.92394250	     -0.00953013	     -0.39478689	     39.00536478	     -5.24774402	     -8.98666901	    -53.94636707	     -0.86442009	    -11.56930204	     19.97888995	     15.91297647	      5.64282844	     -6.02402546	    -15.64913702	      7.71291220	     -0.40510288	      5.10813659	     20.26318272	     -4.51943152	    -12.74583764
      4.65000000	    -15.42291335	      2.26388586	     -0.19804103	     -0.91802993	     -0.00934856	     -0.39488665	     39.41216136	     -5.10167162	     -9.49573105	    -52.59444079	     -0.58248546	    -11.43720719	     19.66760836	     15.25233716	      5.46553093	     -5.88007099	    -15.13335411	      7.79808388	     -0.24096582	      5.02366659	     20.27114475	     -4.40904981	    -13.09493261
      4.65500000	    -15.41743465	      2.04052743	      0.00521211	     -0.91212498	     -0.00916593	     -0.39503292	     39.73486139	     -4.99033570	    -10.01840691	    -51.17694582	     -0.32867944	    -11.27400956	     19.31208568	     14.55629659	      5.30493897	     -5.73197149	    -14.63765559	      7.87206603	     -0.03008573	      4.94445948	     20.23113432	     -4.30918531	    -13.45769603
      4.66000000	    -15.54016297	      1.88841804	      0.07090897	     -0.90622124	     -0.00925319	     -0.39501641	     40.22212836	     -4.84320361	    -10.35112580	    -49.74042169	     -0.08406803	    -11.03818331	     19.17191472	     13.99008648	      5.18297895	     -5.70526342	    -14.12271276	      7.94475412	      0.08749523	      4.89292913	     20.34501523	     -4.22643805	    -13.62569889
      4.66500000	    -15.45962730	      1.62816860	      0.32894468	     -0.90032229	     -0.00911587	     -0.39518776	     40.37958027	     -4.74459086	    -10.97727213	    -48.19309081	      0.15899738	    -10.80562509	     18.85668435	     13.24561939	      4.98039436	     -5.59926474	    -13.67758628	      8.05629183	      0.35742527	      4.86279103	     20.20963162	     -4.11933677	    -14.09069195
      4.67000000	    -15.44820701	      1.43357809	      0.45946226	     -0.89440502	     -0.00914111	     -0.39519487	     40.62192197	     -4.60207828	    -11.41248316	    -46.61482925	      0.37703374	    -10.49220633	     18.59133920	     12.56452875	      4.81309541	     -5.59081163	    -13.21395999	      8.13612296	      0.55660870	      4.83476837	     20.16417932	     -4.02414690	    -14.35965405
      4.67500000	    -15.55803910	      1.29785332	      0.52024904	     -0.88850516	     -0.00938508	     -0.39511263	     40.99651337	     -4.45116870	    -11.71249787	    -45.00262971	      0.56910191	    -10.15425655	     18.46962297	     12.02982320	      4.69269463	     -5.63460416	    -12.77905291	      8.18491716	      0.67547129	      4.80891754	     20.25404088	     -3.95590995	    -14.50436197
      4.68000000	    -15.46744260	      1.08545047	      0.69468685	     -0.88255598	     -0.00944654	     -0.39515262	     41.07200927	     -4.32353235	    -12.22762316	    -43.31103109	      0.74769114	     -9.81786842	     18.25483159	     11.28636689	      4.50281307	     -5.64376093	    -12.35580047	      8.30518653	      0.96731994	      4.85671697	     20.11843778	     -3.86061161	    -14.85642293
      4.68500000	    -15.44996912	      0.92316661	      0.77688828	     -0.87660206	     -0.00966419	     -0.39507954	     41.22285245	     -4.15634739	    -12.58183251	    -41.58379863	      0.89527291	     -9.45182381	     18.06352281	     10.62630918	      4.34713247	     -5.72105782	    -11.94357835	      8.38685765	      1.16742162	      4.90393652	     20.06840818	     -3.77376215	    -15.05504571
      4.69000000	    -15.57215856	      0.82476847	      0.79890055	     -0.87068047	     -0.01012448	     -0.39491500	     41.52831065	     -3.98803117	    -12.79471150	    -39.84014761	      1.01313735	     -9.06580585	     17.96371519	     10.13790594	      4.25141583	     -5.81026481	    -11.57423019	      8.44090492	      1.25653497	      4.90519048	     20.16864840	     -3.72782777	    -15.16271521
      4.69500000	    -15.44923108	      0.62302596	      0.92571582	     -0.86465920	     -0.01032216	     -0.39484900	     41.47176909	     -3.80880603	    -13.26181459	    -38.00207101	      1.10467734	     -8.71032597	     17.75661222	      9.38761791	      4.04421332	     -5.89112266	    -11.20947016	      8.55944674	      1.57701992	      5.02580345	     20.00179818	     -3.62472176	    -15.43759861
      4.70000000	    -15.56249124	      0.53685958	      0.92533533	     -0.85871096	     -0.01089932	     -0.39463120	     41.70757714	     -3.61388293	    -13.41567645	    -36.18232879	      1.16970429	     -8.30672966	     17.63994690	      8.91343089	      3.95120668	     -5.99113399	    -10.89087872	      8.62463807	      1.65623253	      5.04597381	     20.08962967	     -3.57860652	    -15.51728316
      4.70500000	    -15.44794273	      0.34394755	      1.01134615	     -0.85262119	     -0.01122302	     -0.39449613	     41.60867313	     -3.39543502	    -13.84741363	    -34.28644452	      1.17904393	     -7.95995993	     17.40481409	      8.18128665	      3.73761418	     -6.09396541	    -10.55297541	      8.74164395	      1.97399150	      5.17417292	     19.94155623	     -3.46208595	    -15.73816729
      4.71000000	    -15.45619945	      0.22183110	      1.02392522	     -0.84656746	     -0.01178186	     -0.39426345	     41.65533165	     -3.16874864	    -14.09118008	    -32.40370032	      1.17276877	     -7.57057712	     17.19520202	      7.60052605	      3.59259480	     -6.20052675	    -10.25788557	      8.83470584	      2.15977333	      5.25444293	     19.92270403	     -3.38635800	    -15.85150215
      4.71500000	    -15.44649899	      0.08639594	      1.05922978	     -0.84048897	     -0.01237186	     -0.39404412	     41.65232590	     -2.93830652	    -14.36275818	    -30.50689411	      1.13906674	     -7.18441343	     16.96878328	      7.01971400	      3.42953412	     -6.27997191	    -10.00366506	      8.94992987	      2.38331525	      5.33225609	     19.88313616	     -3.30522228	    -16.00275522
      4.72000000	    -15.46529692	     -0.03394909	      1.07600348	     -0.83439217	     -0.01305570	     -0.39377643	     41.67140519	     -2.70416063	    -14.61901962	    -28.62505640	      1.07110878	     -6.77193565	     16.76266989	      6.48414516	      3.27617495	     -6.34224402	     -9.78466657	      9.07462558	      2.58262703	      5.37985452	     19.87541748	     -3.23023385	    -16.11712359
